<?xml version="1.0" encoding="UTF-8" standalone="no"?>
<svg
   xmlns:dc="http://purl.org/dc/elements/1.1/"
   xmlns:cc="http://creativecommons.org/ns#"
   xmlns:rdf="http://www.w3.org/1999/02/22-rdf-syntax-ns#"
   xmlns:svg="http://www.w3.org/2000/svg"
   xmlns="http://www.w3.org/2000/svg"
   xmlns:sodipodi="http://sodipodi.sourceforge.net/DTD/sodipodi-0.dtd"
   xmlns:inkscape="http://www.inkscape.org/namespaces/inkscape"
   xml:space="preserve"
   version="1.1"
   viewBox="0 0 1000 200"
   id="svg2"
   inkscape:version="0.91 r13725"
   sodipodi:docname="docker_head.svg"><metadata
     id="metadata52"><rdf:RDF><cc:Work
         rdf:about=""><dc:format>image/svg+xml</dc:format><dc:type
           rdf:resource="http://purl.org/dc/dcmitype/StillImage" /><dc:title></dc:title></cc:Work></rdf:RDF></metadata><defs
     id="defs50" /><sodipodi:namedview
     pagecolor="#ffffff"
     bordercolor="#666666"
     borderopacity="1"
     objecttolerance="10"
     gridtolerance="10"
     guidetolerance="10"
     inkscape:pageopacity="0"
     inkscape:pageshadow="2"
     inkscape:window-width="640"
     inkscape:window-height="480"
     id="namedview48"
     showgrid="false"
     inkscape:zoom="0.662"
     inkscape:cx="878.86069"
     inkscape:cy="100"
     inkscape:window-x="10"
     inkscape:window-y="32"
     inkscape:window-maximized="0"
     inkscape:current-layer="svg2" /><path
     d="m0 200h1e3v-200h-1e3v200z"
     fill-rule="evenodd"
     fill="#242d32"
     id="path4" /><g
     transform="matrix(0.76724041,0,0,-0.76724041,664.46717,205.26365)"
     id="g6"><path
       d="m 217.49,167.04 25.479,0 0,-26.05 12.888,0 c 5.95,0 12.067,1.061 17.704,2.971 2.769,0.937 5.873,2.243 8.607,3.885 -3.598,4.698 -5.434,10.629 -5.975,16.472 -0.732,7.951 0.868,18.301 6.25,24.523 l 2.678,3.099 3.192,-2.567 c 8.039,-6.459 14.794,-15.477 15.986,-25.762 9.678,2.845 21.035,2.172 29.568,-2.75 l 3.496,-2.017 -1.841,-3.596 c -7.21,-14.08 -22.29,-18.44 -37.04,-17.67 -22.06,-54.949 -70.09,-80.964 -128.32,-80.964 -30.089,0 -57.692,11.248 -73.409,37.937 l -0.2602,0.4399 -2.2867,4.657 c -5.3125,11.752 -7.0805,24.626 -5.8813,37.487 l 0.3579,3.851 21.791,0 0,26.05 25.48,0 0,25.478 50.96,0 0,25.484 30.58,0 0,-50.962"
       id="path8"
       inkscape:connector-curvature="0"
       style="fill:#354750;fill-rule:evenodd" /><path
       d="m 300.04,157.4 c 1.709,13.282 -8.229,23.711 -14.393,28.662 -7.103,-8.209 -8.207,-29.727 2.934,-38.788 -6.217,-5.522 -19.316,-10.53 -32.731,-10.53 l -163.31,0 c -1.297,-14 1.162,-26.9 6.778,-37.937 l 1.8574,-3.3972 c 1.176,-1.9989 2.461,-3.9258 3.851,-5.777 6.713,-0.432 12.903,-0.5789 18.565,-0.4578 l 0.002,0 c 11.129,0.2488 20.211,1.5598 27.095,3.9488 1.025,0.3563 2.138,-0.191 2.494,-1.214 0.355,-1.0207 -0.188,-2.1411 -1.209,-2.4938 -0.914,-0.318 -1.871,-0.6109 -2.856,-0.898 l -0.006,0 c -5.417,-1.5469 -11.229,-2.5891 -18.725,-3.0481 0.441,-0.009 -0.461,-0.0699 -0.467,-0.0699 -0.254,-0.016 -0.574,-0.05 -0.832,-0.0641 -2.951,-0.1691 -6.135,-0.2039 -9.391,-0.2039 -3.562,0 -7.07,0.0688 -10.99,0.268 l -0.102,-0.0641 c 13.61,-15.296 34.883,-24.466 61.552,-24.466 56.44,0 104.32,25.017 125.51,81.191 15.041,-1.544 29.498,2.289 36.074,15.126 -10.474,6.042 -23.943,4.115 -31.697,0.215"
       id="path10"
       inkscape:connector-curvature="0"
       style="fill:#48addf" /><path
       d="m 300.04,157.4 c 1.709,13.282 -8.229,23.711 -14.393,28.662 -7.103,-8.209 -8.207,-29.727 2.934,-38.788 -6.217,-5.522 -19.316,-10.53 -32.731,-10.53 l -153.64,0 c -0.668,-21.443 7.291,-37.724 21.373,-47.571 l 0.002,0 c 11.129,0.2488 20.211,1.5598 27.095,3.9488 1.025,0.3563 2.138,-0.191 2.494,-1.214 0.355,-1.0207 -0.188,-2.1411 -1.209,-2.4938 -0.914,-0.318 -1.871,-0.6109 -2.856,-0.898 l -0.006,0 c -5.417,-1.5469 -11.727,-2.72 -19.223,-3.1821 -0.006,0 -0.184,0.1731 -0.184,0.1731 19.206,-9.852 47.058,-9.818 78.993,2.4461 35.805,13.755 69.121,39.963 92.367,69.937 -0.347,-0.162 -0.691,-0.321 -1.019,-0.49"
       id="path12"
       inkscape:connector-curvature="0"
       style="fill:#56beee" /><path
       d="m 92.855,119.73 c 1.0113,-7.504 3.2066,-14.528 6.4629,-20.926 l 1.8574,-3.3972 c 1.176,-1.9989 2.461,-3.9258 3.851,-5.777 6.713,-0.432 12.903,-0.5789 18.567,-0.4578 11.129,0.2488 20.211,1.5598 27.095,3.9488 1.025,0.3563 2.138,-0.191 2.494,-1.214 0.355,-1.0207 -0.188,-2.1411 -1.209,-2.4938 -0.914,-0.318 -1.871,-0.6109 -2.856,-0.898 l -0.006,0 c -5.417,-1.5469 -11.696,-2.6551 -19.192,-3.118 -0.254,-0.016 -0.703,-0.0191 -0.965,-0.032 -2.947,-0.1672 -6.101,-0.268 -9.355,-0.268 -3.563,0 -7.205,0.0668 -11.127,0.268 13.609,-15.296 35.015,-24.498 61.684,-24.498 48.321,0 90.356,18.339 114.76,58.863 l -192.06,0"
       id="path14"
       inkscape:connector-curvature="0"
       style="fill:#388bbd" /><path
       d="m 103.69,119.73 c 2.887,-13.174 9.831,-23.511 19.905,-30.558 11.129,0.2488 20.211,1.5598 27.095,3.9488 1.025,0.3563 2.138,-0.191 2.494,-1.214 0.355,-1.0207 -0.188,-2.1411 -1.209,-2.4938 -0.914,-0.318 -1.871,-0.6109 -2.856,-0.898 l -0.006,0 c -5.417,-1.5469 -11.827,-2.6551 -19.325,-3.118 19.206,-9.852 46.98,-9.709 78.911,2.5551 19.315,7.425 37.905,18.47 54.586,31.778 l -159.6,0"
       id="path16"
       inkscape:connector-curvature="0"
       style="fill:#409ccb" /><g
       id="g18"
       style="fill-rule:evenodd"><path
         d="m 114.71,162.79 22.082,0 0,-22.085 -22.082,0 0,22.085 z m 1.838,-1.842 1.744,0 0,-18.405 -1.744,0 0,18.405 z m 3.275,0 1.815,0 0,-18.405 -1.815,0 0,18.405 z m 3.348,0 1.812,0 0,-18.405 -1.812,0 0,18.405 z m 3.346,0 1.814,0 0,-18.405 -1.814,0 0,18.405 z m 3.345,0 1.813,0 0,-18.405 -1.813,0 0,18.405 z m 3.346,0 1.746,0 0,-18.405 -1.746,0 0,18.405"
         id="path20"
         inkscape:connector-curvature="0"
         style="fill:#46b0d7" /><path
         d="m 140.19,188.27 22.085,0 0,-22.084 -22.085,0 0,22.084 z m 1.842,-1.839 1.742,0 0,-18.404 -1.742,0 0,18.404 z m 3.279,0 1.811,0 0,-18.404 -1.811,0 0,18.404 z m 3.339,0 1.815,0 0,-18.404 -1.815,0 0,18.404 z m 3.35,0 1.811,0 0,-18.404 -1.811,0 0,18.404 z m 3.348,0 1.812,0 0,-18.404 -1.812,0 0,18.404 z m 3.343,0 1.746,0 0,-18.404 -1.746,0 0,18.404"
         id="path22"
         inkscape:connector-curvature="0"
         style="fill:#46b0d7" /><path
         d="m 140.19,162.79 22.085,0 0,-22.085 -22.085,0 0,22.085 z m 1.842,-1.842 1.742,0 0,-18.405 -1.742,0 0,18.405 z m 3.279,0 1.811,0 0,-18.405 -1.811,0 0,18.405 z m 3.339,0 1.815,0 0,-18.405 -1.815,0 0,18.405 z m 3.35,0 1.811,0 0,-18.405 -1.811,0 0,18.405 z m 3.348,0 1.812,0 0,-18.405 -1.812,0 0,18.405 z m 3.343,0 1.746,0 0,-18.405 -1.746,0 0,18.405"
         id="path24"
         inkscape:connector-curvature="0"
         style="fill:#58c8f1" /><path
         d="m 165.68,162.79 22.086,0 0,-22.085 -22.086,0 0,22.085 z m 1.838,-1.842 1.744,0 0,-18.405 -1.744,0 0,18.405 z m 3.277,0 1.813,0 0,-18.405 -1.813,0 0,18.405 z m 3.35,0 1.81,0 0,-18.405 -1.81,0 0,18.405 z m 3.345,0 1.811,0 0,-18.405 -1.811,0 0,18.405 z m 3.342,0 1.815,0 0,-18.405 -1.815,0 0,18.405 z m 3.35,0 1.742,0 0,-18.405 -1.742,0 0,18.405"
         id="path26"
         inkscape:connector-curvature="0"
         style="fill:#46b0d7" /><path
         d="m 165.68,188.27 22.086,0 0,-22.084 -22.086,0 0,22.084 z m 1.838,-1.839 1.744,0 0,-18.404 -1.744,0 0,18.404 z m 3.277,0 1.813,0 0,-18.404 -1.813,0 0,18.404 z m 3.35,0 1.81,0 0,-18.404 -1.81,0 0,18.404 z m 3.345,0 1.811,0 0,-18.404 -1.811,0 0,18.404 z m 3.342,0 1.815,0 0,-18.404 -1.815,0 0,18.404 z m 3.35,0 1.742,0 0,-18.404 -1.742,0 0,18.404"
         id="path28"
         inkscape:connector-curvature="0"
         style="fill:#58c8f1" /><path
         d="m 191.16,162.79 22.084,0 0,-22.085 -22.084,0 0,22.085 z m 1.838,-1.842 1.746,0 0,-18.405 -1.746,0 0,18.405 z m 3.279,0 1.813,0 0,-18.405 -1.813,0 0,18.405 z m 3.346,0 1.813,0 0,-18.405 -1.813,0 0,18.405 z m 3.346,0 1.812,0 0,-18.405 -1.812,0 0,18.405 z m 3.346,0 1.814,0 0,-18.405 -1.814,0 0,18.405 z m 3.345,0 1.746,0 0,-18.405 -1.746,0 0,18.405"
         id="path30"
         inkscape:connector-curvature="0"
         style="fill:#58c8f1" /><path
         d="m 191.16,188.27 22.084,0 0,-22.084 -22.084,0 0,22.084 z m 1.838,-1.839 1.746,0 0,-18.404 -1.746,0 0,18.404 z m 3.279,0 1.813,0 0,-18.404 -1.813,0 0,18.404 z m 3.346,0 1.813,0 0,-18.404 -1.813,0 0,18.404 z m 3.346,0 1.812,0 0,-18.404 -1.812,0 0,18.404 z m 3.346,0 1.814,0 0,-18.404 -1.814,0 0,18.404 z m 3.345,0 1.746,0 0,-18.404 -1.746,0 0,18.404"
         id="path32"
         inkscape:connector-curvature="0"
         style="fill:#46b0d7" /><path
         d="m 191.16,213.75 22.084,0 0,-22.085 -22.084,0 0,22.085 z m 1.838,-1.838 1.746,0 0,-18.406 -1.746,0 0,18.406 z m 3.279,0 1.813,0 0,-18.406 -1.813,0 0,18.406 z m 3.346,0 1.813,0 0,-18.406 -1.813,0 0,18.406 z m 3.346,0 1.812,0 0,-18.406 -1.812,0 0,18.406 z m 3.346,0 1.814,0 0,-18.406 -1.814,0 0,18.406 z m 3.345,0 1.746,0 0,-18.406 -1.746,0 0,18.406"
         id="path34"
         inkscape:connector-curvature="0"
         style="fill:#58c8f1" /><path
         d="m 216.64,162.79 22.082,0 0,-22.085 -22.082,0 0,22.085 z m 1.84,-1.842 1.742,0 0,-18.405 -1.742,0 0,18.405 z m 3.277,0 1.81,0 0,-18.405 -1.81,0 0,18.405 z m 3.346,0 1.812,0 0,-18.405 -1.812,0 0,18.405 z m 3.343,0 1.813,0 0,-18.405 -1.813,0 0,18.405 z m 3.35,0 1.81,0 0,-18.405 -1.81,0 0,18.405 z m 3.346,0 1.742,0 0,-18.405 -1.742,0 0,18.405"
         id="path36"
         inkscape:connector-curvature="0"
         style="fill:#46b0d7" /><path
         d="m 160.9,104.9 c 3.366,0 6.094,-2.727 6.094,-6.089 0,-3.3692 -2.728,-6.093 -6.094,-6.093 -3.367,0 -6.091,2.7238 -6.091,6.093 0,3.362 2.724,6.089 6.091,6.089"
         id="path38"
         inkscape:connector-curvature="0"
         style="fill:#d7f2f2" /><path
         d="m 160.9,103.18 c 0.557,0 1.088,-0.11 1.577,-0.298 -0.53,-0.307 -0.887,-0.885 -0.887,-1.542 0,-0.984 0.795,-1.7799 1.779,-1.7799 0.674,0 1.26,0.3711 1.561,0.9269 0.215,-0.516 0.332,-1.08 0.332,-1.673 0,-2.411 -1.953,-4.3668 -4.362,-4.3668 -2.41,0 -4.365,1.9558 -4.365,4.3668 0,2.407 1.955,4.366 4.365,4.366"
         id="path40"
         inkscape:connector-curvature="0"
         style="fill:#354750" /><path
         d="m 53.132,117.53 283.42,0 c -6.174,1.567 -19.528,3.679 -17.322,11.767 -11.223,-12.985 -38.286,-9.109 -45.114,-2.707 -7.603,-11.031 -51.879,-6.838 -54.967,1.757 -9.533,-11.191 -39.078,-11.191 -48.615,0 -3.088,-8.595 -47.358,-12.788 -54.964,-1.757 -6.832,-6.402 -33.89,-10.278 -45.111,2.707 2.2008,-8.088 -11.153,-10.2 -17.325,-11.767"
         id="path42"
         inkscape:connector-curvature="0"
         style="fill:#354750" /></g><path
       d="m 177.09,60.995 c -15.09,7.161 -23.373,16.891 -27.983,27.519 -5.602,-1.6 -12.339,-2.6211 -20.167,-3.0621 -2.951,-0.1668 -6.05,-0.2481 -9.306,-0.2481 -3.754,0 -7.707,0.1121 -11.856,0.3313 13.836,-13.83 30.856,-24.475 62.374,-24.669 2.324,0 4.639,0.0422 6.938,0.1289"
       id="path44"
       inkscape:connector-curvature="0"
       style="fill:#c2e1e1" /><path
       d="m 154.72,78.71 c -2.088,2.8328 -4.112,6.3937 -5.6,9.8039 -5.608,-1.6 -12.345,-2.6211 -20.173,-3.0621 5.375,-2.9188 13.069,-5.6211 25.773,-6.7418"
       id="path46"
       inkscape:connector-curvature="0"
       style="fill:#d7f2f2" /></g></svg>