<?xml version="1.0" encoding="UTF-8" standalone="no"?>
<!-- Created with Inkscape (http://www.inkscape.org/) -->
<svg xmlns:rdf="http://www.w3.org/1999/02/22-rdf-syntax-ns#" xmlns="http://www.w3.org/2000/svg" xml:space="preserve" version="1.1" xmlns:cc="http://creativecommons.org/ns#" xmlns:dc="http://purl.org/dc/elements/1.1/" viewBox="0 0 120 120"><metadata><rdf:RDF><cc:Work rdf:about=""><dc:format>image/svg+xml</dc:format><dc:type rdf:resource="http://purl.org/dc/dcmitype/StillImage"/><dc:title/></cc:Work></rdf:RDF></metadata><defs/><g transform="matrix(1.25,0,0,-1.25,-8.064575,214.91679)"><g fill-rule="nonzero" transform="translate(-31.26744,38.659229)"><path fill="#4e5d6e" d="m111.54,114.76c-1.176-1.614-3.436-1.968-5.049-0.797s-1.971,3.43-0.795,5.044c1.171,1.613,3.427,1.969,5.045,0.799,1.611-1.171,1.97-3.429,0.799-5.046"/><path fill="#4e5d6e" d="m97.844,116.01c0.7656,1.497,2.6012,2.093,4.1002,1.327,1.499-0.761,2.092-2.594,1.327-4.094-0.755-1.503-2.592-2.099-4.0937-1.331-1.5015,0.763-2.0957,2.6-1.3335,4.098"/><path fill="#4e5d6e" d="m96.452,110.57c-0.4305-1.331-1.868-2.059-3.202-1.627-1.3332,0.433-2.0617,1.867-1.6289,3.198,0.4324,1.333,1.8648,2.063,3.1992,1.629,1.3309-0.431,2.0652-1.865,1.6317-3.2"/><path fill="#4e5d6e" d="m91.178,107.48c-0.1785-1.153-1.2664-1.941-2.4199-1.758-1.1484,0.182-1.9363,1.269-1.752,2.42,0.1809,1.156,1.2625,1.943,2.4161,1.758,1.1535-0.181,1.9433-1.264,1.7558-2.42"/><path fill="#4e5d6e" d="m87.237,104.1c0-0.968-0.7832-1.749-1.7512-1.749-0.9656,0-1.7515,0.781-1.7515,1.749,0,0.964,0.7859,1.748,1.7515,1.748,0.968,0,1.7512-0.784,1.7512-1.748"/><path fill="#4e5d6e" d="m84.453,100.75c0.1215-0.7868-0.4089-1.5251-1.1949-1.6505-0.791-0.1199-1.5234,0.4113-1.6445,1.1965-0.1281,0.786,0.407,1.522,1.1961,1.647,0.7863,0.126,1.5207-0.413,1.6433-1.193"/><path fill="#96d325" d="m65.276,51.082c-1.1758-1.616-3.4324-1.9699-5.0469-0.7988-1.6094,1.1711-1.9715,3.4309-0.7988,5.043,1.1738,1.6148,3.4316,1.9711,5.0429,0.8,1.6133-1.1711,1.9778-3.4309,0.8028-5.0442"/><path fill="#96d325" d="m67.693,56.838c0.7671,1.498,2.6004,2.0949,4.0996,1.332,1.5027-0.7652,2.0957-2.6012,1.3328-4.1012-0.7598-1.4949-2.5988-2.091-4.0988-1.3257-1.4977,0.7628-2.0946,2.5957-1.3336,4.0949"/><path fill="#96d325" d="m79.352,57.939c-0.4348-1.3289-1.8645-2.0641-3.2012-1.6297-1.3352,0.4359-2.0625,1.8656-1.6313,3.2019,0.4336,1.3328,1.8657,2.061,3.1997,1.6278,1.3289-0.4321,2.0664-1.8661,1.6328-3.2"/><path fill="#96d325" d="m83.968,61.937c-0.1844-1.1598-1.2664-1.9418-2.4199-1.7598-1.1563,0.1821-1.9434,1.268-1.7598,2.4207,0.1828,1.1532,1.2695,1.9391,2.4226,1.7582,1.1536-0.1832,1.9457-1.2679,1.7571-2.4191"/><path fill="#96d325" d="m87.237,65.978c0-0.966-0.7832-1.748-1.7512-1.748-0.9656,0-1.7515,0.782-1.7515,1.748,0,0.968,0.7859,1.7492,1.7515,1.7492,0.968,0,1.7512-0.7812,1.7512-1.7492"/><path fill="#96d325" d="m89.357,69.777c0.1262-0.7812-0.4031-1.5191-1.1949-1.6453-0.7863-0.125-1.5187,0.4114-1.6445,1.1942-0.1242,0.7871,0.4058,1.5246,1.1922,1.65,0.7922,0.1226,1.5285-0.4141,1.6472-1.1989"/><path fill="#96d325" d="m49.173,100.64c1.8957-0.623,2.9335-2.656,2.3195-4.5552-0.6164-1.8973-2.6543-2.9368-4.5488-2.3172-1.8989,0.6144-2.9356,2.6504-2.3196,4.55,0.616,1.8944,2.6543,2.9324,4.5489,2.3224"/><path fill="#96d325" d="m53.17,93.246c1.6621-0.2645,2.791-1.827,2.5278-3.4891-0.2621-1.6617-1.8235-2.7965-3.4856-2.5304-1.6609,0.2632-2.7929,1.8218-2.5344,3.4871,0.2688,1.6625,1.8254,2.7941,3.4922,2.5324"/><path fill="#96d325" d="m57.816,87.578c1.4012,0,2.5391-1.1347,2.5391-2.5375,0-1.4051-1.1379-2.5398-2.5391-2.5398-1.4035,0-2.5383,1.1347-2.5422,2.5398,0,1.4028,1.1387,2.5375,2.5422,2.5375"/><path fill="#96d325" d="m62.375,83.522c1.1582,0.1832,2.243-0.6055,2.4234-1.7578,0.186-1.1547-0.6023-2.2383-1.7593-2.4199-1.1536-0.1817-2.2368,0.6046-2.4164,1.7578-0.1832,1.1562,0.6039,2.2394,1.7523,2.4199"/><path fill="#96d325" d="m66.821,80.814c0.916,0.2957,1.9023-0.2047,2.2019-1.125,0.2954-0.9117-0.2078-1.9043-1.1265-2.2004-0.9192-0.2985-1.9074,0.2008-2.2012,1.1195-0.3,0.9207,0.2027,1.907,1.1258,2.2059"/><path fill="#96d325" d="m70.869,79.206c0.7003,0.3567,1.5636,0.075,1.9257-0.632,0.3617-0.7074,0.0805-1.5722-0.6304-1.9336-0.7051-0.3582-1.5703-0.0789-1.927,0.627-0.3672,0.7136-0.0859,1.5773,0.6317,1.9386"/><path fill="#4e5d6e" d="m124.03,76.311c1.903-0.6129,2.937-2.6492,2.319-4.5488-0.617-1.8937-2.652-2.9328-4.547-2.318-1.899,0.6192-2.932,2.6516-2.321,4.5512,0.622,1.8953,2.656,2.9399,4.549,2.3156"/><path fill="#4e5d6e" d="m118.76,82.857c1.662-0.2632,2.792-1.8265,2.532-3.4906-0.266-1.6613-1.825-2.7945-3.485-2.5301-1.664,0.2633-2.799,1.8254-2.539,3.4871,0.263,1.6633,1.828,2.7957,3.492,2.5336"/><path fill="#4e5d6e" d="m113.16,87.578c1.405,0,2.537-1.1347,2.537-2.5375,0-1.4051-1.132-2.5398-2.537-2.5398-1.398,0-2.538,1.1347-2.538,2.5398,0,1.4028,1.14,2.5375,2.538,2.5375"/><path fill="#4e5d6e" d="m107.93,90.738c1.153,0.1816,2.233-0.6055,2.417-1.7578,0.183-1.1563-0.603-2.2391-1.756-2.4223-1.155-0.1855-2.241,0.607-2.422,1.7578-0.184,1.1531,0.603,2.2395,1.761,2.4223"/><path fill="#4e5d6e" d="m103.07,92.597c0.918,0.2969,1.913-0.2086,2.2-1.125,0.301-0.9164-0.199-1.9043-1.117-2.2004-0.916-0.3008-1.905,0.1992-2.206,1.1183-0.296,0.9157,0.208,1.9082,1.123,2.2071"/><path fill="#4e5d6e" d="m98.806,93.441c0.705,0.3613,1.5695,0.0754,1.9305-0.6269,0.369-0.7118,0.084-1.577-0.63-1.9383-0.699-0.3563-1.5681-0.0739-1.9294,0.6269-0.3641,0.7098-0.0821,1.5785,0.6289,1.9383"/><path fill="#4e5d6e" d="m65.276,119c1.175-1.615,0.8105-3.877-0.8028-5.044-1.6113-1.175-3.8691-0.815-5.0429,0.797-1.1727,1.617-0.8106,3.875,0.7988,5.046,1.6145,1.17,3.8742,0.814,5.0469-0.799"/><path fill="#4e5d6e" d="m64.163,110.67c1.1887-1.189,1.1836-3.119,0-4.31-1.1941-1.187-3.1211-1.186-4.3133,0-1.1887,1.191-1.1887,3.12,0.0027,4.31,1.1895,1.189,3.1204,1.192,4.3106,0"/><path fill="#4e5d6e" d="m64.591,103.36c1.136-0.828,1.386-2.414,0.5637-3.5473-0.8227-1.1325-2.4133-1.3867-3.5481-0.5606-1.1308,0.8219-1.3855,2.4109-0.5593,3.5399,0.8211,1.14,2.4136,1.389,3.5437,0.568"/><path fill="#4e5d6e" d="m65.9,97.394c1.0398-0.5293,1.4539-1.802,0.9226-2.8477-0.5292-1.0383-1.7988-1.4566-2.8445-0.9199-1.039,0.5277-1.4504,1.8015-0.9262,2.8422,0.5332,1.0429,1.8059,1.4543,2.8481,0.9254"/><path fill="#4e5d6e" d="m67.896,92.597c0.9187-0.2989,1.4219-1.2914,1.1219-2.2071-0.295-0.9191-1.2813-1.4191-2.1973-1.1183-0.9231,0.2961-1.4258,1.284-1.1258,2.2004,0.2938,0.9164,1.2859,1.4219,2.2012,1.125"/><path fill="#4e5d6e" d="m70.221,88.918c0.7918-0.1254,1.3223-0.8653,1.1961-1.6551-0.125-0.7762-0.8574-1.3117-1.6387-1.191-0.7898,0.1254-1.3261,0.8574-1.2011,1.6484,0.1296,0.7813,0.8664,1.3152,1.6437,1.1977"/><path fill="#96d325" d="m111.54,55.326c1.171-1.6121,0.812-3.8739-0.799-5.043-1.618-1.175-3.871-0.8172-5.045,0.7988-1.176,1.6133-0.818,3.8731,0.795,5.0442,1.613,1.1679,3.874,0.8148,5.049-0.8"/><path fill="#96d325" d="m111.12,63.715c1.191-1.1902,1.191-3.1179,0-4.3082-1.197-1.1867-3.119-1.1898-4.312,0-1.191,1.1903-1.191,3.118,0,4.3082,1.193,1.186,3.12,1.193,4.312,0"/><path fill="#96d325" d="m109.36,70.835c1.137-0.8266,1.388-2.4164,0.564-3.5496-0.821-1.1391-2.408-1.3899-3.544-0.5622-1.14,0.8223-1.391,2.4122-0.566,3.543,0.831,1.1363,2.417,1.3895,3.546,0.5688"/><path fill="#96d325" d="m106.99,76.457c1.044-0.5301,1.459-1.8051,0.926-2.8461-0.528-1.0406-1.805-1.4531-2.846-0.9254-1.04,0.5293-1.459,1.8059-0.925,2.8477,0.534,1.0383,1.806,1.4566,2.845,0.9238"/><path fill="#96d325" d="m104.16,80.814c0.918-0.2989,1.418-1.2852,1.117-2.2059-0.291-0.9187-1.282-1.418-2.2-1.1195-0.915,0.2961-1.419,1.2887-1.125,2.2004,0.299,0.9203,1.292,1.4207,2.208,1.125"/><path fill="#96d325" d="m101.2,84.006c0.791-0.1192,1.324-0.8528,1.197-1.6438-0.128-0.7859-0.866-1.3164-1.649-1.1976-0.7852,0.1254-1.3165,0.8629-1.1915,1.6515,0.125,0.7813,0.8615,1.3203,1.6435,1.1899"/><path fill="#96d325" d="m121.8,100.64c1.89,0.61,3.93-0.428,4.547-2.3224,0.618-1.8996-0.416-3.9356-2.319-4.55-1.893-0.6196-3.927,0.4199-4.549,2.3172-0.617,1.8992,0.422,3.9342,2.321,4.5552"/><path fill="#96d325" d="m113.69,102.83c1.499,0.763,3.329,0.164,4.097-1.335,0.765-1.495,0.168-3.3282-1.334-4.0958-1.495-0.7641-3.335-0.1684-4.098,1.3289-0.76,1.5019-0.166,3.3399,1.335,4.1019"/><path fill="#96d325" d="m106.38,103.36c1.136,0.821,2.723,0.572,3.544-0.568,0.824-1.129,0.573-2.715-0.564-3.5438-1.129-0.8222-2.717-0.568-3.544,0.5645-0.827,1.1333-0.576,2.7253,0.564,3.5473"/><path fill="#96d325" d="m100.3,102.84c0.823,0.828,2.164,0.83,2.994,0,0.822-0.826,0.822-2.167-0.002-2.9912-0.828-0.8265-2.166-0.8265-2.992,0-0.8305,0.8242-0.8305,2.1692,0,2.9912"/><path fill="#96d325" d="m98.104,99.432c-0.5644-0.7773-1.6601-0.9554-2.4414-0.3843-0.7812,0.5652-0.9582,1.6583-0.3851,2.4403,0.5617,0.785,1.6605,0.956,2.4386,0.389,0.7813-0.564,0.9602-1.665,0.3879-2.445"/><path fill="#96d325" d="m93.886,98.36c-0.364-0.7085-1.2265-0.9921-1.9335-0.6308-0.7098,0.3613-0.993,1.2262-0.6297,1.9383,0.3582,0.705,1.2285,0.988,1.9297,0.627,0.7148-0.3614,0.9968-1.229,0.6335-1.9345"/><path fill="#4e5d6e" d="m46.943,76.311c1.8945,0.6243,3.9324-0.4203,4.5496-2.3156,0.6132-1.8996-0.4246-3.932-2.3223-4.5512-1.8926-0.6148-3.9309,0.4243-4.5469,2.318-0.616,1.8996,0.4207,3.9359,2.3196,4.5488"/><path fill="#4e5d6e" d="m54.515,72.684c1.5,0.759,3.3383,0.1605,4.1008-1.3363,0.7649-1.4973,0.1652-3.3321-1.3328-4.0981-1.5012-0.7621-3.3359-0.166-4.0996,1.3328-0.7629,1.5012-0.1672,3.3371,1.3316,4.1016"/><path fill="#4e5d6e" d="m61.606,70.835c1.1348,0.8207,2.7254,0.5675,3.5481-0.5688,0.8242-1.1308,0.5723-2.7168-0.5637-3.543-1.1301-0.8277-2.7226-0.5769-3.5437,0.5622-0.8254,1.1332-0.5715,2.723,0.5593,3.5496"/><path fill="#4e5d6e" d="m67.682,70.232c0.8281,0.8262,2.1692,0.8246,2.9973,0,0.825-0.8246,0.825-2.1656-0.0031-2.9914-0.825-0.8261-2.1661-0.8289-2.9942,0-0.823,0.8258-0.823,2.166,0,2.9914"/><path fill="#4e5d6e" d="m75.696,68.594c-0.5625-0.7847-1.6641-0.9558-2.4441-0.389-0.7813,0.5672-0.9524,1.6601-0.384,2.441,0.5672,0.7836,1.6613,0.9578,2.4422,0.3902,0.7777-0.5695,0.9515-1.6652,0.3859-2.4422"/><path fill="#4e5d6e" d="m79.649,70.416c-0.3594-0.7086-1.2273-0.9863-1.9355-0.6285-0.7098,0.3613-0.9903,1.2242-0.627,1.9359,0.3594,0.7047,1.2219,0.9895,1.9387,0.6309,0.7039-0.3644,0.9898-1.2297,0.6238-1.9383"/><path fill="#96d325" d="m89.096,124.39c0-1.993-1.6133-3.611-3.6106-3.611-1.9949,0-3.6101,1.618-3.6101,3.611,0,1.994,1.6152,3.611,3.6101,3.611,1.9973,0,3.6106-1.617,3.6106-3.611"/><path fill="#96d325" d="m77.282,117.36c-0.2668,1.664,0.87,3.219,2.5344,3.485,1.6602,0.265,3.2156-0.869,3.4871-2.534,0.259-1.656-0.8738-3.223-2.5344-3.484-1.6656-0.267-3.2234,0.869-3.4871,2.533"/><path fill="#96d325" d="m79.352,112.14c0.4336-1.331-0.3039-2.765-1.6328-3.198-1.334-0.432-2.7661,0.296-3.1997,1.627-0.4312,1.335,0.2981,2.769,1.6313,3.2,1.334,0.433,2.7664-0.296,3.2012-1.629"/><path fill="#96d325" d="m76.906,106.55c0.5301-1.041,0.109-2.314-0.9289-2.85-1.0429-0.525-2.3164-0.113-2.8484,0.932-0.5285,1.038-0.1105,2.311,0.9266,2.839,1.0441,0.532,2.3156,0.122,2.8507-0.921"/><path fill="#96d325" d="m75.696,101.49c0.5656-0.782,0.3918-1.8751-0.3859-2.4419-0.7809-0.5695-1.875-0.3914-2.4422,0.3859-0.5684,0.78-0.3973,1.879,0.384,2.445,0.78,0.567,1.8816,0.396,2.4441-0.389"/><path fill="#96d325" d="m75.417,97.148c0.5617-0.5618,0.5605-1.4782,0-2.0387-0.5633-0.5629-1.4734-0.559-2.0371,0-0.5625,0.5668-0.5625,1.473-0.0027,2.0387,0.5664,0.5621,1.4765,0.5621,2.0398,0"/><path fill="#4e5d6e" d="m89.096,45.685c0-1.993-1.6133-3.611-3.6106-3.611-1.9949,0-3.6101,1.618-3.6101,3.611,0,1.9929,1.6152,3.6128,3.6101,3.6128,1.9973,0,3.6106-1.6199,3.6106-3.6128"/><path fill="#4e5d6e" d="m87.672,51.767c-0.2637,1.6648,0.8711,3.223,2.5347,3.489,1.6543,0.2629,3.2168-0.873,3.4778-2.5378,0.2636-1.6602-0.8653-3.2204-2.5274-3.4813-1.6632-0.266-3.2226,0.868-3.4851,2.5301"/><path fill="#4e5d6e" d="m96.452,59.511c0.4335-1.3351-0.3008-2.766-1.6317-3.2019-1.3344-0.4344-2.7668,0.3008-3.1992,1.6297-0.4328,1.3339,0.2957,2.7679,1.6289,3.2019,1.334,0.4313,2.7715-0.2969,3.202-1.6297"/><path fill="#4e5d6e" d="m97.835,65.456c0.5363-1.0441,0.1172-2.3128-0.9188-2.8449-1.041-0.532-2.3164-0.1179-2.8515,0.9239-0.5227,1.0421-0.1165,2.3148,0.9277,2.8441,1.0449,0.532,2.3172,0.116,2.8426-0.9231"/><path fill="#4e5d6e" d="m98.104,70.646c0.5723-0.7777,0.3934-1.8738-0.3879-2.443-0.7781-0.5648-1.8769-0.3937-2.4402,0.391-0.5664,0.777-0.3945,1.8727,0.3867,2.4422,0.7813,0.5668,1.877,0.3934,2.4414-0.3902"/><path fill="#4e5d6e" d="m97.588,74.971c0.5625-0.5629,0.5625-1.473,0-2.0359-0.5609-0.5606-1.4668-0.5606-2.0356,0-0.5613,0.559-0.5613,1.4754,0.0039,2.0359,0.561,0.5629,1.468,0.5629,2.0317,0"/><path fill="#c53753" d="m101.08,121.36c-0.62-1.899-2.6565-2.939-4.553-2.32-1.8992,0.617-2.9355,2.654-2.3183,4.549,0.6105,1.903,2.6472,2.939,4.5461,2.318,1.8972-0.619,2.9372-2.654,2.3252-4.547"/><path fill="#c53753" d="m87.672,118.31c0.2625,1.665,1.8258,2.797,3.4851,2.534,1.6621-0.266,2.791-1.821,2.5344-3.489-0.268-1.66-1.8305-2.792-3.4902-2.529-1.6582,0.261-2.7961,1.824-2.5293,3.484"/><path fill="#c53753" d="m88.023,112.71c0-1.405-1.1343-2.541-2.5371-2.541-1.4043,0-2.5386,1.136-2.5386,2.541,0,1.403,1.1343,2.538,2.5386,2.538,1.4028,0,2.5371-1.135,2.5371-2.538"/><path fill="#c53753" d="m83.968,108.15c0.1804-1.155-0.6035-2.238-1.7571-2.42-1.1531-0.181-2.2398,0.605-2.4226,1.758-0.1836,1.152,0.6074,2.237,1.7578,2.42,1.1555,0.185,2.2375-0.602,2.4219-1.758"/><path fill="#c53753" d="m81.262,103.71c0.2985-0.919-0.2082-1.908-1.1269-2.206-0.916-0.299-1.9043,0.205-2.2004,1.123-0.3008,0.918,0.2004,1.907,1.1218,2.205,0.9184,0.297,1.9028-0.204,2.2055-1.122"/><path fill="#c53753" d="m79.649,99.664c0.3625-0.7059,0.0754-1.5731-0.6308-1.9344-0.7098-0.3641-1.5723-0.0832-1.9375,0.6308-0.3575,0.7055-0.0731,1.5707,0.6289,1.9305,0.716,0.367,1.5812,0.082,1.9394-0.6269"/><path fill="#65cbb8" d="m76.757,46.499c-0.6113-1.898-2.6511-2.9371-4.5507-2.3191-1.8957,0.6172-2.9336,2.6531-2.3145,4.548,0.6152,1.8961,2.6524,2.9332,4.5449,2.318,1.8985-0.618,2.9375-2.6508,2.3203-4.5469"/><path fill="#65cbb8" d="m77.282,52.718c0.2637,1.6648,1.8282,2.8007,3.4895,2.5378,1.6582-0.266,2.791-1.825,2.5242-3.4859-0.2598-1.6652-1.823-2.7992-3.4793-2.5332-1.6644,0.2609-2.7988,1.8262-2.5344,3.4813"/><path fill="#65cbb8" d="m88.023,57.371c0-1.402-1.1343-2.5418-2.5371-2.5418-1.4043,0-2.5386,1.1398-2.5386,2.5418,0,1.4019,1.1343,2.5383,2.5386,2.5383,1.4028,0,2.5371-1.1364,2.5371-2.5383"/><path fill="#65cbb8" d="m91.178,62.598c0.1856-1.1558-0.6023-2.2386-1.7558-2.4218-1.1563-0.186-2.2352,0.607-2.4161,1.7609-0.1843,1.1512,0.6036,2.2359,1.752,2.416,1.1535,0.184,2.2414-0.6019,2.4199-1.7551"/><path fill="#65cbb8" d="m93.04,67.455c0.2957-0.9199-0.205-1.9078-1.123-2.209-0.918-0.293-1.9082,0.2082-2.2031,1.1242-0.2996,0.9199,0.207,1.9078,1.1203,2.2039,0.9187,0.2981,1.9082-0.2031,2.2058-1.1191"/><path fill="#65cbb8" d="m93.886,71.723c0.3622-0.7082,0.0735-1.5718-0.6296-1.9359-0.7063-0.3648-1.5754-0.0801-1.9348,0.6301-0.3594,0.707-0.075,1.5707,0.623,1.9344,0.7149,0.3625,1.5801,0.0812,1.9414-0.6286"/><path fill="#65cbb8" d="m46.131,88.652c1.9949,0,3.6089-1.6188,3.6089-3.611,0-1.9961-1.614-3.6133-3.6089-3.6133-1.9961,0-3.6118,1.6172-3.6118,3.6133,0,1.9922,1.6172,3.611,3.6118,3.611"/><path fill="#65cbb8" d="m52.212,82.857c1.6621,0.2621,3.2235-0.8703,3.4856-2.5336,0.2644-1.6617-0.8657-3.2238-2.5344-3.4859-1.6602-0.2656-3.2207,0.8691-3.4856,2.5313-0.2605,1.6617,0.8735,3.225,2.5344,3.4882"/><path fill="#65cbb8" d="m58.383,78.907c1.3328,0.4324,2.7676-0.3008,3.202-1.6308,0.4289-1.3356-0.295-2.7688-1.6328-3.1989-1.3321-0.4351-2.7618,0.2934-3.1961,1.625-0.4356,1.3364,0.2937,2.7684,1.6269,3.2047"/><path fill="#65cbb8" d="m63.978,76.461c1.0418,0.5289,2.3172,0.1106,2.8445-0.9316,0.534-1.0379,0.1231-2.3145-0.925-2.8438-1.0398-0.5316-2.3125-0.1199-2.8457,0.9254-0.532,1.041-0.1148,2.3199,0.9262,2.85"/><path fill="#65cbb8" d="m69.035,75.252c0.7812,0.5679,1.8738,0.391,2.4441-0.3864,0.5691-0.7797,0.3906-1.8769-0.3855-2.4449-0.7836-0.5676-1.8762-0.3965-2.4465,0.3891-0.5618,0.7797-0.3907,1.8726,0.3879,2.4422"/><path fill="#65cbb8" d="m73.38,74.973c0.5637,0.5606,1.4738,0.5594,2.0344,0,0.5644-0.5628,0.5644-1.4718,0-2.0382-0.5606-0.5567-1.468-0.5606-2.0344,0.0023-0.5625,0.5606-0.5625,1.4691,0,2.0359"/><path fill="#c53753" d="m124.84,88.652c1.985,0,3.607-1.6188,3.607-3.611,0-1.9961-1.622-3.6133-3.607-3.6133-1.998,0-3.615,1.6172-3.615,3.611,0,1.9945,1.617,3.6133,3.615,3.6133"/><path fill="#c53753" d="m117.81,93.246c1.66,0.2609,3.222-0.8731,3.485-2.5324,0.264-1.6653-0.872-3.2239-2.533-3.4871-1.663-0.2661-3.222,0.8687-3.485,2.5304-0.266,1.6621,0.864,3.2254,2.533,3.4891"/><path fill="#c53753" d="m111.02,96.002c1.333,0.4375,2.761-0.2934,3.201-1.6266,0.433-1.3324-0.302-2.7621-1.633-3.1981-1.333-0.4339-2.769,0.2946-3.199,1.6258-0.432,1.3356,0.296,2.7723,1.631,3.1989"/><path fill="#c53753" d="m105.07,97.394c1.041,0.5312,2.318,0.1175,2.843-0.9254,0.533-1.0407,0.121-2.3145-0.923-2.8461-1.044-0.5293-2.311-0.1145-2.843,0.9238-0.528,1.0457-0.12,2.3207,0.923,2.8477"/><path fill="#c53753" d="m99.88,97.659c0.7813,0.5668,1.8773,0.3965,2.4383-0.3887,0.572-0.7773,0.399-1.8707-0.384-2.4426-0.779-0.5676-1.871-0.391-2.443,0.3887-0.5683,0.7824-0.3933,1.8746,0.3887,2.4426"/><path fill="#c53753" d="m95.556,97.146c0.5618,0.5633,1.4708,0.5594,2.0364-0.0039,0.5617-0.5567,0.5617-1.4692-0.0031-2.0348-0.5625-0.5652-1.4723-0.5578-2.0282,0-0.5703,0.5617-0.5691,1.4742-0.0051,2.0387"/><path fill="#c53753" d="m55.768,111.1c1.6179-1.175,1.9746-3.433,0.7957-5.045-1.1668-1.614-3.4258-1.972-5.0391-0.798-1.6082,1.171-1.9719,3.431-0.8027,5.04,1.1726,1.613,3.4387,1.978,5.0461,0.803"/><path fill="#c53753" d="m57.283,102.83c1.498-0.767,2.0977-2.603,1.3328-4.1019-0.7625-1.4934-2.6008-2.0961-4.1008-1.3266-1.4988,0.7598-2.0945,2.5926-1.3316,4.0935,0.7664,1.499,2.6016,2.098,4.0996,1.335"/><path fill="#c53753" d="m59.952,96.002c1.3378-0.4266,2.0617-1.8633,1.632-3.1989-0.4336-1.3312-1.8684-2.0597-3.2012-1.6258-1.3332,0.436-2.0625,1.8657-1.6269,3.1981,0.4293,1.3332,1.864,2.0641,3.1961,1.6266"/><path fill="#c53753" d="m63.039,90.738c1.157-0.1828,1.9429-1.2692,1.7593-2.4223-0.1804-1.1508-1.2652-1.9433-2.4234-1.7578-1.1484,0.1832-1.9355,1.266-1.7523,2.4223,0.1796,1.1484,1.2628,1.9433,2.4164,1.7578"/><path fill="#c53753" d="m66.425,86.79c0.9629,0,1.7481-0.7863,1.7481-1.7492s-0.7852-1.7472-1.7481-1.7472c-0.9668-0.0055-1.7519,0.7843-1.7519,1.7472s0.7851,1.7492,1.7519,1.7492"/><path fill="#c53753" d="m69.773,84.006c0.7864,0.123,1.5227-0.4039,1.6477-1.1899,0.1223-0.7886-0.4141-1.5261-1.1941-1.6515-0.7883-0.12-1.5239,0.4117-1.6496,1.1988-0.129,0.7875,0.4152,1.5183,1.196,1.6426"/><path fill="#65cbb8" d="m119.45,64.831c1.615-1.171,1.974-3.432,0.795-5.048-1.168-1.6082-3.422-1.9719-5.04-0.7961-1.616,1.1711-1.975,3.434-0.799,5.0449,1.173,1.6102,3.431,1.9703,5.044,0.7992"/><path fill="#65cbb8" d="m116.45,72.684c1.5-0.7645,2.097-2.6004,1.331-4.1016-0.767-1.4988-2.597-2.0949-4.096-1.3328-1.501,0.766-2.099,2.6008-1.335,4.0981,0.77,1.4996,2.605,2.0984,4.1,1.3363"/><path fill="#65cbb8" d="m112.59,78.907c1.331-0.4363,2.066-1.8683,1.627-3.2047-0.434-1.3316-1.862-2.0601-3.195-1.625-1.335,0.4301-2.063,1.8633-1.635,3.195,0.434,1.3339,1.87,2.0671,3.203,1.6347"/><path fill="#65cbb8" d="m108.59,83.522c1.157-0.1805,1.943-1.2637,1.76-2.4199-0.184-1.1532-1.264-1.9418-2.421-1.7578-1.154,0.1816-1.941,1.2652-1.757,2.416,0.181,1.1562,1.267,1.9472,2.418,1.7617"/><path fill="#65cbb8" d="m104.55,86.79c0.968,0,1.749-0.7863,1.749-1.7492s-0.781-1.7472-1.749-1.7472c-0.966-0.0055-1.748,0.7843-1.748,1.7472s0.782,1.7492,1.748,1.7492"/><path fill="#65cbb8" d="m100.74,88.915c0.787,0.1203,1.526-0.4097,1.649-1.1984,0.122-0.7875-0.415-1.5195-1.197-1.6449-0.782-0.1207-1.5212,0.4109-1.6435,1.1933-0.125,0.7875,0.4102,1.5223,1.1915,1.65"/><path fill="#65cbb8" d="m115.2,111.1c1.613,1.175,3.872,0.81,5.04-0.8,1.179-1.612,0.822-3.872-0.795-5.047-1.613-1.17-3.873-0.812-5.044,0.802-1.169,1.612-0.817,3.87,0.799,5.045"/><path fill="#65cbb8" d="m106.81,110.67c1.193,1.193,3.118,1.193,4.309,0,1.194-1.191,1.194-3.118,0-4.307-1.191-1.189-3.116-1.189-4.309-0.002-1.189,1.191-1.189,3.121,0,4.309"/><path fill="#65cbb8" d="m103.8,105.93c-0.823-1.136-2.412-1.386-3.546-0.557-1.1322,0.819-1.3833,2.405-0.5607,3.541,0.8247,1.136,2.4097,1.388,3.5477,0.564,1.135-0.827,1.385-2.412,0.559-3.548"/><path fill="#65cbb8" d="m97.841,104.62c-0.5312-1.04-1.8035-1.456-2.8496-0.922-1.0383,0.526-1.457,1.8-0.9187,2.845,0.5261,1.043,1.8015,1.453,2.8398,0.923,1.0399-0.526,1.4567-1.803,0.9285-2.846"/><path fill="#65cbb8" d="m93.04,102.63c-0.2976-0.918-1.2871-1.418-2.2058-1.123-0.9145,0.298-1.4199,1.287-1.1203,2.206,0.2949,0.918,1.2851,1.421,2.2031,1.12,0.918-0.296,1.4187-1.285,1.123-2.203"/><path fill="#65cbb8" d="M89.361,100.31c-0.123-0.795-0.861-1.326-1.654-1.206-0.7769,0.1305-1.3101,0.8653-1.1941,1.6445,0.1301,0.791,0.8633,1.327,1.6523,1.202,0.7793-0.128,1.3184-0.864,1.1961-1.644"/><path fill="#c53753" d="m51.524,64.831c1.6133,1.1711,3.8723,0.8141,5.0469-0.7992,1.1711-1.6109,0.8144-3.8718-0.8035-5.0449-1.6114-1.1758-3.8672-0.8121-5.0383,0.7961-1.177,1.616-0.8172,3.877,0.7949,5.048"/><path fill="#c53753" d="m59.852,63.715c1.1887,1.193,3.1165,1.193,4.3106,0,1.1875-1.1902,1.1875-3.1179,0-4.3082-1.1941-1.1898-3.1211-1.1898-4.3106,0-1.1914,1.1883-1.1914,3.118,0,4.3082"/><path fill="#c53753" d="M71.278,61.161c-0.826-1.133-2.415-1.385-3.551-0.561-1.1301,0.8273-1.384,2.4141-0.5586,3.5453,0.825,1.1359,2.4109,1.3918,3.5457,0.5637,1.134-0.8219,1.3879-2.4129,0.5644-3.5477"/><path fill="#c53753" d="m76.906,63.538c-0.5351-1.0449-1.8097-1.459-2.8507-0.927-1.0371,0.5321-1.452,1.8008-0.9266,2.8449,0.532,1.0391,1.8035,1.4551,2.8496,0.9258,1.0367-0.532,1.4539-1.8047,0.9277-2.8437"/><path fill="#c53753" d="m81.262,66.37c-0.3027-0.916-1.2871-1.4211-2.2055-1.1242-0.9265,0.298-1.4226,1.2851-1.1218,2.209,0.2961,0.916,1.2844,1.4172,2.2004,1.1191,0.9187-0.2961,1.4254-1.284,1.1269-2.2039"/><path fill="#c53753" d="m84.458,69.331c-0.1277-0.7878-0.8621-1.3242-1.6484-1.1992-0.7864,0.1313-1.3223,0.8641-1.2032,1.6453,0.1282,0.7903,0.8614,1.3254,1.6543,1.1989,0.7786-0.1305,1.3172-0.8629,1.1973-1.645"/><path fill="#65cbb8" d="m76.757,123.58c0.6172-1.895-0.4218-3.932-2.3203-4.549-1.8894-0.619-3.9297,0.421-4.5449,2.32-0.6191,1.893,0.4238,3.932,2.3145,4.543,1.8996,0.623,3.9394-0.411,4.5507-2.314"/><path fill="#65cbb8" d="m73.128,116.01c0.761-1.502,0.1575-3.335-1.3347-4.098-1.4992-0.768-3.3325-0.172-4.093,1.331-0.7676,1.5-0.1719,3.333,1.327,4.094,1.4984,0.766,3.3351,0.17,4.1007-1.327"/><path fill="#65cbb8" d="m71.278,108.92c0.8235-1.136,0.5696-2.722-0.5644-3.545-1.1348-0.821-2.7207-0.575-3.5457,0.563-0.8254,1.134-0.5715,2.719,0.5586,3.546,1.1367,0.822,2.7254,0.572,3.5515-0.564"/><path fill="#65cbb8" d="m70.68,102.84c0.825-0.826,0.825-2.171-0.0031-2.992-0.825-0.8297-2.1661-0.8297-2.993,0-0.8242,0.821-0.8281,2.166,0,2.988,0.823,0.822,2.168,0.828,2.9961,0.004"/><path fill="#65cbb8" d="m71.094,97.659c0.7761-0.568,0.9546-1.6602,0.3847-2.4426-0.5695-0.7797-1.6621-0.9563-2.4433-0.3848-0.7774,0.568-0.9497,1.6614-0.3809,2.4387,0.5594,0.7852,1.6559,0.9555,2.4395,0.3887"/><path fill="#65cbb8" d="m72.164,93.441c0.7109-0.3621,0.9921-1.2262,0.6289-1.9383-0.3555-0.707-1.2219-0.9953-1.9328-0.6269-0.709,0.3613-0.9903,1.2265-0.629,1.9336,0.3626,0.7117,1.2278,0.9929,1.9329,0.6316"/><path fill="#c53753" d="m101.08,48.728c0.612-1.8949-0.428-3.9308-2.3252-4.548-1.8926-0.618-3.9356,0.4211-4.5493,2.3191-0.614,1.8961,0.427,3.9289,2.3215,4.5469,1.8965,0.6152,3.933-0.4219,4.553-2.318"/><path fill="#c53753" d="m103.27,56.838c0.767-1.4992,0.168-3.334-1.327-4.0949-1.499-0.7653-3.3346-0.1731-4.1002,1.3257-0.7649,1.5051-0.168,3.336,1.3289,4.1012,1.5023,0.7629,3.3413,0.166,4.0983-1.332"/><path fill="#c53753" d="m103.8,64.145c0.826-1.1312,0.576-2.7211-0.559-3.5453-1.138-0.8227-2.723-0.5719-3.5477,0.5613-0.8226,1.1348-0.5715,2.7258,0.5597,3.5477,1.135,0.8281,2.724,0.5722,3.547-0.5637"/><path fill="#c53753" d="m103.29,70.232c0.824-0.8254,0.824-2.1656-0.003-2.9914-0.821-0.8289-2.166-0.8289-2.989,0-0.8305,0.8258-0.8305,2.166,0,2.9914,0.823,0.8262,2.168,0.8262,2.992,0"/><path fill="#c53753" d="m101.93,75.252c0.783-0.5696,0.951-1.6625,0.384-2.4422-0.561-0.7856-1.656-0.9567-2.4383-0.3891-0.782,0.568-0.957,1.6652-0.3887,2.4449,0.572,0.7774,1.664,0.9543,2.443,0.3864"/><path fill="#c53753" d="m100.11,79.207c0.707-0.3648,0.991-1.2324,0.631-1.9343-0.362-0.7122-1.2285-0.9934-1.9387-0.6321-0.7078,0.3637-0.9878,1.2317-0.6296,1.9364,0.3613,0.7078,1.2343,0.9925,1.9373,0.63"/></g></g></svg>
