<?xml version="1.0" encoding="UTF-8" standalone="no"?>
<svg xmlns:rdf="http://www.w3.org/1999/02/22-rdf-syntax-ns#" xmlns="http://www.w3.org/2000/svg" height="100%" viewBox="0 0 120 120" width="100%" version="1.1" xmlns:cc="http://creativecommons.org/ns#" xmlns:dc="http://purl.org/dc/elements/1.1/">
 <metadata>
  <rdf:RDF>
   <cc:Work rdf:about="">
    <dc:format>image/svg+xml</dc:format>
    <dc:type rdf:resource="http://purl.org/dc/dcmitype/StillImage"/>
    <dc:title/>
   </cc:Work>
  </rdf:RDF>
 </metadata>
 <path fill="#000" d="m60.246,8.0467c-29.058,0-52.618,23.56-52.618,52.618,0,23.251,15.075,42.971,35.986,49.926,2.6302,0.48157,3.5904-1.1433,3.5904-2.5308,0-1.2526-0.0482-5.4017-0.07378-9.7953-13.227,2.411-16.619-3.2414-17.725-6.2045-0.5678-1.5219-3.1249-6.1917-5.3849-7.4264-1.8486-1.01-4.4458-3.4157-0.09424-3.4669,4.1554-0.04891,7.1268,3.8341,8.0644,5.4211,4.721,7.9902,12.32,5.7167,15.313,4.3677,0.47829-3.3913,1.8398-5.7167,3.3401-7.0266-11.681-1.3297-23.968-5.845-23.968-26.007,0-5.7489,2.0521-10.437,5.4116-14.12-0.53645-1.3359-2.3477-6.6897,0.52032-13.931,0,0,4.4126-1.413,14.471,5.3955,4.1941-1.1722,8.6936-1.7503,13.167-1.7697,4.4703,0.01932,8.9732,0.60366,13.174,1.7758,10.039-6.8147,14.459-5.3955,14.459-5.3955,2.8775,7.2485,1.0662,12.595,0.52659,13.925,3.3719,3.6836,5.4083,8.3724,5.4083,14.12,0,20.214-12.307,24.665-24.028,25.969,1.895,1.6316,3.571,4.8302,3.571,9.7371,0,7.0332-0.07049,12.705-0.07049,14.439,0,1.4002,0.95698,3.038,3.6226,2.5242,20.895-6.9698,35.957-26.688,35.957-49.927,0-29.058-23.56-52.618-52.618-52.618z"/>
</svg>
