<?xml version="1.0" encoding="UTF-8" standalone="no"?>
<svg xmlns:rdf="http://www.w3.org/1999/02/22-rdf-syntax-ns#" xmlns="http://www.w3.org/2000/svg" version="1.1" xmlns:cc="http://creativecommons.org/ns#" xmlns:dc="http://purl.org/dc/elements/1.1/" viewBox="0 0 1024 1024">
 <path fill="#fff" d="m512 0c-282.75 0-512 229.25-512 512 0 226.25 146.69 418.13 350.16 485.81 25.593 4.686 34.937-11.125 34.937-24.626 0-12.188-0.469-52.562-0.718-95.314-128.71 23.46-161.71-31.541-172.47-60.373-5.525-14.809-30.407-60.249-52.398-72.263-17.988-9.828-43.26-33.237-0.917-33.735 40.434-0.476 69.348 37.308 78.471 52.75 45.938 77.749 119.88 55.627 149 42.5 4.654-32.999 17.902-55.627 32.501-68.373-113.66-12.939-233.22-56.875-233.22-253.06 0-55.94 19.968-101.56 52.658-137.4-5.22-12.999-22.844-65.095 5.063-135.56 0 0 42.937-13.749 140.81 52.501 40.811-11.406 84.594-17.031 128.12-17.22 43.499 0.188 87.314 5.874 128.19 17.28 97.689-66.311 140.69-52.501 140.69-52.501 28 70.532 10.375 122.56 5.124 135.5 32.811 35.844 52.626 81.468 52.626 137.4 0 196.69-119.75 240-233.81 252.69 18.439 15.876 34.748 47.001 34.748 94.748 0 68.437-0.686 123.63-0.686 140.5 0 13.625 9.312 29.561 35.25 24.562 203.32-67.82 349.88-259.69 349.88-485.82 0-282.75-229.25-512-512-512z"/>
</svg>
