<?xml version="1.0" encoding="UTF-8" standalone="no"?>
<!-- Created with Inkscape (http://www.inkscape.org/) -->
<svg xmlns:rdf="http://www.w3.org/1999/02/22-rdf-syntax-ns#" xmlns="http://www.w3.org/2000/svg" version="1.1" xmlns:cc="http://creativecommons.org/ns#" xmlns:dc="http://purl.org/dc/elements/1.1/" viewBox="0 0 800 600">
 <defs></defs>
 <metadata>
  <rdf:RDF>
   <cc:Work rdf:about="">
    <dc:format>image/svg+xml</dc:format>
    <dc:type rdf:resource="http://purl.org/dc/dcmitype/StillImage"/>
    <dc:title/>
   </cc:Work>
  </rdf:RDF>
 </metadata>
 <g stroke="#f5f5f5" stroke-linecap="round" stroke-dasharray="none" stroke-miterlimit="4" stroke-width="5" transform="translate(-151.46002,138.47335)">
  <path opacity="0.57028114" stroke-linejoin="round" d="m946.81-147.4,45.501,77.692-68.251-33.597z" fill="#0044aa"/>
  <path opacity="0.57028114" stroke-linejoin="round" d="m874.97-64.46,48.87-39.282,67.734,33.779z" fill="#5599ff"/>
  <path opacity="0.57028114" stroke-linejoin="round" d="M874.97-64.46,909.09,19.531,980.34,6.4076z" fill="none"/>
  <path opacity="0.57028114" stroke-linejoin="round" d="M980.34,6.4076,991.57-69.964,874.97-64.46z" fill="#0066ff"/>
  <path opacity="0.57028114" stroke-linejoin="round" d="M980.34,6.4076,968.36,66.251,909.09,19.531z" fill="#0066ff"/>
  <path opacity="0.57028114" stroke-linejoin="round" d="M909.09,19.531,843.24,11.132,874.97-64.46z" fill="#5599ff"/>
  <path opacity="0.57028114" stroke-linejoin="round" d="m843.24,11.132,65.856,8.3991-92.798,49.87,26.941-58.269z" fill="#2a7fff"/>
  <path opacity="0.57028114" stroke-linejoin="round" d="m909.09,19.531,59.271,46.72-90.403,28.872z" fill="#2a7fff"/>
  <path opacity="0.57028114" stroke-linejoin="round" d="M877.96,95.123,816.29,69.401,909.09,19.531z" fill="#0055d4"/>
  <path opacity="0.57028114" stroke-linejoin="round" d="m923.84-103.74-109.94,3.0612,132.91-46.72z" fill="#0055d4"/>
  <path opacity="0.57028114" stroke-linejoin="round" d="m813.9-100.68-51.488-55.644,184.4,8.9241z" fill="#0066ff"/>
  <path opacity="0.57028114" stroke-linejoin="round" d="m813.9-100.68,61.067,36.221,48.87-39.282-109.94,3.0612z" fill="#0066ff"/>
  <path opacity="0.57028114" stroke-linejoin="round" d="M798.33-21.939,874.97-64.46,813.9-100.68z" fill="#2a7fff"/>
  <path opacity="0.57028114" stroke-linejoin="round" d="M843.24,11.132,798.33-21.939,874.97-64.46z" fill="#0066ff"/>
  <path opacity="0.57028114" stroke-linejoin="round" d="M816.29,69.401,757.62,42.104,843.24,11.132z" fill="#0044aa"/>
  <path opacity="0.57028114" stroke-linejoin="round" d="m757.62,42.104,40.711-64.043,44.902,33.072z" fill="#80b3ff"/>
  <path opacity="0.57028114" stroke-linejoin="round" d="M798.33-21.939,768.4-48.187,757.62,42.104z" fill="#0044aa"/>
  <path opacity="0.57028114" stroke-linejoin="round" d="m813.9-100.68-45.501,52.495,29.935,26.247z" fill="#5599ff"/>
  <path opacity="0.57028114" stroke-linejoin="round" d="m768.4-48.187-90.403,9.974,135.9-62.469z" fill="#2a7fff"/>
  <path opacity="0.57028114" stroke-linejoin="round" d="M762.41-156.33,678-38.213,813.9-100.68z" fill="#0055d4"/>
  <path opacity="0.57028114" stroke-linejoin="round" d="M678-38.213,757.62,42.104,768.4-48.187z" fill="#80b3ff"/>
  <path opacity="0.57028114" stroke-linejoin="round" d="m877.96,95.123,21.553,53.544,68.85-82.416z" fill="#5599ff"/>
  <path opacity="0.57028114" stroke-linejoin="round" d="m899.51,148.67,77.83,15.748-8.9804-98.165z" fill="#0044aa"/>
  <path opacity="0.57028114" stroke-linejoin="round" d="m977.34,164.42-67.054,69.293-10.776-85.041z" fill="#80b3ff"/>
  <path opacity="0.57028114" stroke-linejoin="round" d="m977.34,164.42,19.158,127.04-86.212-57.744z" fill="#d5e5ff"/>
  <path opacity="0.57028114" stroke-linejoin="round" d="m910.29,233.71-79.028,6.2994,165.24,51.445z" fill="#d5f6ff"/>
  <path opacity="0.57028114" stroke-linejoin="round" d="m899.51,148.67-91.6,1.5748,102.38,83.466z" fill="#80b3ff"/>
  <path opacity="0.57028114" stroke-linejoin="round" d="m807.91,150.24,70.047-55.119,21.553,53.544z" fill="#0066ff"/>
  <path opacity="0.57028114" stroke-linejoin="round" d="M816.29,69.401,807.91,150.24,877.96,95.123z" fill="#80b3ff"/>
  <path opacity="0.57028114" stroke-linejoin="round" d="m831.26,240.01-86.811-27.822,63.462-61.944z" fill="#d5f6ff"/>
  <path opacity="0.57028114" stroke-linejoin="round" d="m910.29,233.71-79.028,6.2994-23.349-89.766z" fill="#d5e5ff"/>
  <path opacity="0.57028114" stroke-linejoin="round" d="M807.91,150.24,757.62,104.05,816.29,69.401z" fill="#5599ff"/>
  <path opacity="0.57028114" stroke-linejoin="round" d="M744.45,212.19,807.91,150.24,757.62,104.05z" fill="#d5e5ff"/>
  <path opacity="0.57028114" stroke-linejoin="round" d="m757.62,104.05,0-61.944,58.672,27.297z" fill="#80b3ff"/>
  <path opacity="0.57028114" stroke-linejoin="round" d="m757.62,42.104-67.054,72.442,67.054-10.499z" fill="#2a7fff"/>
  <path opacity="0.57028114" stroke-linejoin="round" d="m744.45,212.19-64.659-36.746,10.776-60.894z" fill="#80e5ff"/>
  <path opacity="0.57028114" stroke-linejoin="round" d="m744.45,212.19,13.171-108.14-67.054,10.499z" fill="#aaccff"/>
  <path opacity="0.57028114" stroke-linejoin="round" d="m679.79,175.44-80.225,17.848,23.948-75.592z" fill="#d5e5ff"/>
  <path opacity="0.57028114" stroke-linejoin="round" d="m679.79,175.44-56.277-57.744,67.054-3.1497z" fill="#d7eef4"/>
  <path opacity="0.57028114" stroke-linejoin="round" d="m690.57,114.55-49.093-72.442-17.961,75.592z" fill="#5599ff"/>
  <path opacity="0.57028114" stroke-linejoin="round" d="m641.48,42.104,116.15,0-67.054,72.442z" fill="#80b3ff"/>
  <path opacity="0.57028114" stroke-linejoin="round" d="m641.48,42.104,36.52-80.317,79.626,80.317z" fill="#0044aa"/>
  <path opacity="0.57028114" stroke-linejoin="round" d="m678-38.213-41.31-60.369,125.73-57.744z" fill="#003380"/>
  <path opacity="0.57028114" stroke-linejoin="round" d="M678-38.213,619.32,1.6831,636.69-98.582z" fill="#0055d4"/>
  <path opacity="0.57028114" stroke-linejoin="round" d="M641.48,42.104,619.32,1.6831,678-38.213z" fill="#2a7fff"/>
  <path opacity="0.57028114" stroke-linejoin="round" d="M641.48,42.104,585.2,43.154,619.32,1.6831z" fill="#d5e5ff"/>
  <path opacity="0.57028114" stroke-linejoin="round" d="M623.51,117.7,585.2,43.154,641.48,42.104z" fill="#5599ff"/>
  <path opacity="0.57028114" stroke-linejoin="round" d="M599.57,193.29,532.51,82,623.51,117.7z" fill="#d7eef4"/>
  <path opacity="0.57028114" stroke-linejoin="round" d="M623.51,117.7,585.2,43.154,532.51,82z" fill="#aaccff"/>
  <path opacity="0.57028114" stroke-linejoin="round" d="M532.51,82,518.74,12.182,585.2,43.154z" fill="#d5e5ff"/>
  <path opacity="0.57028114" stroke-linejoin="round" d="M585.2,43.154,619.32,1.6831,518.74,12.182z" fill="#80b3ff"/>
  <path opacity="0.57028114" stroke-linejoin="round" d="M619.32,1.6831,564.24-44.512,518.74,12.182z" fill="#aaccff"/>
  <path opacity="0.57028114" stroke-linejoin="round" d="M564.24-44.512,636.69-98.582,619.32,1.6831z" fill="#0055d4"/>
  <path opacity="0.57028114" stroke-linejoin="round" d="m518.74,12.182-67.652,16.273-8.9804-72.967z" fill="none"/>
  <path opacity="0.57028114" stroke-linejoin="round" d="M532.51,82,451.09,28.455,518.74,12.182z" fill="#d5f6ff"/>
  <path opacity="0.57028114" stroke-linejoin="round" d="m518.74,12.182-9.5791-88.191-67.054,31.497z" fill="#aaccff"/>
  <path opacity="0.57028114" stroke-linejoin="round" d="m564.24-44.512-55.08-31.497,9.5791,88.191z" fill="#80b3ff"/>
  <path opacity="0.57028114" stroke-linejoin="round" d="m451.09,28.455-56.277-37.796,47.297-35.171z" fill="#d5e5ff"/>
  <path opacity="0.57028114" stroke-linejoin="round" d="M564.24-44.512,509.16-76.009,636.69-98.582z" fill="#2a7fff"/>
  <path opacity="0.57028114" stroke-linejoin="round" d="m762.41-156.33-119.74,4.1996-5.9869,53.544z" fill="#0066ff"/>
  <path opacity="0.57028114" stroke-linejoin="round" d="m642.67-152.13-114.95-1.0499,108.96,54.594z" fill="#003380"/>
  <path opacity="0.57028114" stroke-linejoin="round" d="m527.72-153.18-18.56,77.167,127.52-22.573z" fill="#0055d4"/>
  <path opacity="0.57028114" stroke-linejoin="round" d="m527.72-153.18-69.448,0,50.889,77.167z" fill="#80b3ff"/>
  <path opacity="0.57028114" stroke-linejoin="round" d="m442.11-44.512,67.054-31.497-50.889-77.167z" fill="#5599ff"/>
  <path opacity="0.57028114" stroke-linejoin="round" d="m375.66-94.382,66.455,49.87,16.165-108.66z" fill="#00ccff"/>
  <path opacity="0.57028114" stroke-linejoin="round" d="m375.66-94.382,19.158,85.041,47.297-35.171z" fill="#aaeeff"/>
  <path opacity="0.57028114" stroke-linejoin="miter" d="m518.74,12.182-67.652,16.273-8.9804-72.967z" fill="#5599ff"/>
  <path opacity="0.57028114" stroke-linejoin="miter" d="M980.34,6.4076,909.09,19.531,874.97-64.46z" fill="#0055d4"/>
 </g>
</svg>
