<?xml version="1.0" encoding="UTF-8" standalone="no"?>
<svg xmlns:rdf="http://www.w3.org/1999/02/22-rdf-syntax-ns#" xmlns="http://www.w3.org/2000/svg" version="1.1" xmlns:cc="http://creativecommons.org/ns#" xmlns:dc="http://purl.org/dc/elements/1.1/" viewBox="0 0 200 180">
 <g fill="#fff" transform="translate(-266.11 -379.3)">
  <path fill="#fff" d="m453.83 412.81c-6.3097 2.799-13.092 4.6898-20.209 5.5405 7.2641-4.3545 12.844-11.25 15.471-19.467-6.7993 4.033-14.329 6.9606-22.345 8.5384-6.4178-6.8388-15.562-11.111-25.683-11.111-19.432 0-35.187 15.754-35.187 35.185 0 2.7578 0.31128 5.4436 0.91155 8.0188-29.243-1.4672-55.17-15.476-72.525-36.764-3.0288 5.1966-4.7644 11.24-4.7644 17.689 0 12.208 6.2119 22.977 15.653 29.287-5.7677-0.18265-11.193-1.7656-15.937-4.4008-0.004 0.14663-0.004 0.29412-0.004 0.44248 0 17.048 12.129 31.268 28.226 34.503-2.9525 0.80436-6.061 1.234-9.2699 1.234-2.2673 0-4.4711-0.22124-6.6201-0.63114 4.478 13.979 17.472 24.151 32.87 24.434-12.042 9.438-27.214 15.063-43.7 15.063-2.8401 0-5.6408-0.16722-8.3935-0.49223 15.572 9.9842 34.067 15.809 53.938 15.809 64.72 0 100.11-53.615 100.11-100.11 0-1.5255-0.0343-3.0425-0.10204-4.5526 6.8739-4.96 12.839-11.156 17.556-18.213z"/>
 </g>
</svg>
